<?xml version="1.0" encoding="UTF-8" standalone="no"?>
<svg
   height="24px"
   viewBox="0 0 24 24"
   width="24px"
   fill="#000000"
   version="1.1"
   id="svg16"
   sodipodi:docname="play_one_black_24dp.svg"
   inkscape:version="1.1 (c4e8f9e, 2021-05-24)"
   xmlns:inkscape="http://www.inkscape.org/namespaces/inkscape"
   xmlns:sodipodi="http://sodipodi.sourceforge.net/DTD/sodipodi-0.dtd"
   xmlns="http://www.w3.org/2000/svg"
   xmlns:svg="http://www.w3.org/2000/svg">
  <defs
     id="defs20" />
  <sodipodi:namedview
     id="namedview18"
     pagecolor="#505050"
     bordercolor="#eeeeee"
     borderopacity="1"
     inkscape:pageshadow="0"
     inkscape:pageopacity="0"
     inkscape:pagecheckerboard="0"
     showgrid="false"
     inkscape:zoom="32.458333"
     inkscape:cx="6.2695764"
     inkscape:cy="12.369705"
     inkscape:window-width="1393"
     inkscape:window-height="865"
     inkscape:window-x="1167"
     inkscape:window-y="475"
     inkscape:window-maximized="0"
     inkscape:current-layer="svg16" />
  <path
     d="M 7,7 H 17 V 9.9999998 L 21,6 17,2 V 5 H 5 v 6 h 2 z m 10,10 -6.36457,-0.03081 c 0,0 -0.6469832,-2.938382 -3.63543,-2.969191 0,0 -4,0.02567 -4,4 0,4.005135 4,4 4,4 2.8652118,-0.03081 3.63543,-3.030809 3.63543,-3.030809 L 19,19 V 13 H 17 Z M 13,15 V 8.9999998 h -1 l -2,1 V 11 h 1.5 v 4 z"
     id="path9"
     sodipodi:nodetypes="cccccccccccccccccccccccccccc" />
  <path
     d="M0 0h24v24H0V0z"
     fill="none"
     id="path12" />
</svg>
